<svg width="12" height="11" viewBox="0 0 12 11" fill="none" xmlns="http://www.w3.org/2000/svg">
<path d="M10.7309 3.68569L7.50703 3.23666L6.06586 0.436581C6.02651 0.359919 5.96174 0.297856 5.88174 0.260133C5.68111 0.165215 5.43734 0.244313 5.33703 0.436581L3.89586 3.23666L0.671977 3.68569C0.583093 3.69786 0.501829 3.73802 0.439611 3.79886C0.364393 3.87296 0.322945 3.97263 0.324374 4.076C0.325802 4.17935 0.369991 4.27798 0.44723 4.35013L2.77975 6.52958L2.22868 9.60711C2.21576 9.6787 2.22403 9.75233 2.25255 9.81966C2.28107 9.88694 2.32869 9.94528 2.39003 9.98794C2.45137 10.0306 2.52396 10.056 2.59958 10.0612C2.6752 10.0664 2.75081 10.0511 2.81785 10.0172L5.70142 8.56424L8.58503 10.0172C8.66376 10.0573 8.75519 10.0707 8.84281 10.0561C9.06374 10.0196 9.21228 9.81885 9.17421 9.60711L8.62315 6.52958L10.9557 4.35013C11.0192 4.29048 11.061 4.21259 11.0737 4.12742C11.108 3.91447 10.9531 3.71733 10.7309 3.68569Z" fill="#F7C852"/>
</svg>
